<?xml version="1.0" encoding="UTF-8"?>
<svg id="Camada_1" data-name="Camada 1" xmlns="http://www.w3.org/2000/svg" viewBox="0 0 169.25 82.27">
  <defs>
    <style>
      .cls-1 {
        font-family: RequestPersonalUse, 'Request Personal Use';
        font-size: 45px;
      }

      .cls-1, .cls-2 {
        fill: #fff;
      }

      .cls-2 {
        stroke-width: 0px;
      }
    </style>
  </defs>
  <text class="cls-1" transform="translate(102.61 57.07)"><tspan x="0" y="0">H</tspan></text>
  <text class="cls-1" transform="translate(62.55 56.98)"><tspan x="0" y="0">C</tspan></text>
  <polygon class="cls-2" points="62.55 1.3 62.31 1.9 55.32 14.15 51 21.74 49.22 20.55 45.24 17.7 48.97 14.15 53.9 9.45 62.55 1.3"/>
  <path class="cls-2" d="M31.94,45.96l-5.61,9.01h5.73l5.13-9.01h-5.25ZM38.82,14.15c-1.19,0-2.37.16-3.48.49-5.16,1.51-8.97,6.26-9.01,11.91v.13c0,1.19.2,2.29.49,3.4.49,1.64,1.31,3.2,2.41,4.5,1.55,1.89,3.69,3.32,6.1,4.01,1.11.29,2.25.49,3.4.49h2.38l5.13-9.01h-7.43c-1.89,0-3.48-1.6-3.48-3.48s1.6-3.44,3.48-3.44h11.37l.8-1.42,4.33-7.59h-16.5ZM63.85,39.09c-.49-1.68-1.31-3.19-2.38-4.5-2.29-2.74-5.77-4.5-9.58-4.5h-1.29l-5.13,9.01h6.43c1.89,0,3.44,1.56,3.44,3.44s-1.55,3.44-3.44,3.44h-10.64l.2.16-5.04,8.85h15.48c6.84,0,12.45-5.61,12.45-12.45,0-1.19-.16-2.33-.49-3.44ZM59.67,14.15l-5.13,9.01h4.19l5.61-9.01h-4.67Z"/>
  <polygon class="cls-2" points="37.58 82.12 37.88 82.12 37.78 82.27 37.58 82.12"/>
  <polygon class="cls-2" points="47.99 51.37 43.65 54.97 38.79 59.01 30 66.23 36.41 54.97 41.45 46.12 44.21 48.25 47.99 51.37"/>
</svg>